<?xml version="1.0" standalone="no"?>
<!DOCTYPE svg PUBLIC "-//W3C//DTD SVG 20010904//EN"
 "http://www.w3.org/TR/2001/REC-SVG-20010904/DTD/svg10.dtd">
<svg version="1.0" xmlns="http://www.w3.org/2000/svg"
 width="130.000000pt" height="130.000000pt" viewBox="0 0 130.000000 130.000000"
 preserveAspectRatio="xMidYMid meet">
<metadata>
Created by potrace 1.11, written by Peter Selinger 2001-2013
</metadata>
<g transform="translate(0.000000,130.000000) scale(0.100000,-0.100000)"
fill="#000000" stroke="none">
<path d="M230 1121 c-8 -15 -7 -22 4 -28 7 -4 33 -25 56 -47 l42 -38 -56 -57
-56 -57 0 -76 c0 -63 3 -79 18 -90 35 -24 42 -54 42 -172 l0 -115 95 -96 96
-95 191 0 191 0 93 92 94 92 0 126 0 126 35 34 c33 32 35 37 35 102 l0 69 -59
57 -59 57 55 50 c40 37 53 55 48 68 -11 28 -30 20 -91 -35 l-57 -53 -120 -5
-120 -5 -23 -43 c-24 -45 -25 -44 -54 13 l-15 30 -114 3 -114 3 -62 54 c-34
30 -67 55 -73 55 -6 0 -16 -9 -22 -19z m186 -186 l39 -35 -27 0 -28 0 0 -85 0
-86 83 3 c81 3 82 3 85 31 4 33 12 34 40 4 l21 -22 -22 -40 -23 -40 -105 -3
-105 -3 -52 56 c-48 51 -52 59 -52 104 0 44 5 54 46 100 25 28 49 51 53 51 4
0 25 -16 47 -35z m204 -31 c17 -36 36 -64 42 -62 6 2 25 32 42 65 l31 62 63 0
c34 1 62 -2 61 -6 0 -9 -190 -168 -199 -168 -4 0 -40 30 -81 67 -41 36 -85 75
-99 87 l-25 20 67 1 67 0 31 -66z m387 14 c49 -48 53 -56 53 -98 0 -42 -4 -50
-58 -103 l-58 -57 -100 0 -100 0 -23 47 -22 46 28 23 28 22 3 -34 3 -35 82 3
82 3 3 83 3 82 -32 0 -32 0 39 35 c21 19 41 34 44 35 2 0 28 -23 57 -52z
m-489 -95 c3 -32 2 -33 -32 -33 -35 0 -36 1 -36 36 0 34 1 35 33 32 28 -3 32
-7 35 -35z m352 2 c0 -32 -2 -35 -30 -35 -26 0 -30 4 -30 28 0 35 6 42 37 42
20 0 23 -5 23 -35z m-190 -156 c16 -29 -6 -85 -26 -68 -17 14 -18 61 -2 77 16
16 15 16 28 -9z m-343 -172 c-2 -23 -3 -1 -3 48 0 50 1 68 3 42 2 -26 2 -67 0
-90z m660 0 c-2 -23 -3 -1 -3 48 0 50 1 68 3 42 2 -26 2 -67 0 -90z m-383 66
c49 -96 50 -96 87 -20 l33 67 98 0 98 0 0 -103 0 -103 -51 -52 -51 -52 -167 0
-167 0 -57 58 -57 58 0 97 0 97 105 0 105 0 24 -47z"/>
<path d="M350 155 l0 -25 131 0 c130 0 130 0 127 23 -3 21 -7 22 -130 25
l-128 3 0 -26z"/>
<path d="M714 165 c-12 -30 7 -35 132 -35 l124 0 0 25 0 25 -125 0 c-101 0
-127 -3 -131 -15z"/>
</g>
</svg>
